<svg xmlns="http://www.w3.org/2000/svg" viewBox="0 0 1000 1400" role="img" aria-label="Discord bottle">
  <defs>
    <radialGradient id="floorGlow" cx="50%" cy="50%" r="50%">
      <stop offset="0" stop-color="#5865f2" stop-opacity="0.7"/>
      <stop offset="0.42" stop-color="#392dff" stop-opacity="0.28"/>
      <stop offset="1" stop-color="#090706" stop-opacity="0"/>
    </radialGradient>

    <linearGradient id="goldCap" x1="305" y1="150" x2="695" y2="150">
      <stop offset="0" stop-color="#53320f"/>
      <stop offset="0.1" stop-color="#a46d22"/>
      <stop offset="0.28" stop-color="#ffd889"/>
      <stop offset="0.5" stop-color="#b77a28"/>
      <stop offset="0.72" stop-color="#f5c96f"/>
      <stop offset="0.9" stop-color="#7c4d18"/>
      <stop offset="1" stop-color="#2c1908"/>
    </linearGradient>

    <linearGradient id="capShadow" x1="500" y1="120" x2="500" y2="260">
      <stop offset="0" stop-color="#fff2b9" stop-opacity="0.28"/>
      <stop offset="0.48" stop-color="#9d611d" stop-opacity="0.9"/>
      <stop offset="1" stop-color="#190b03" stop-opacity="0.92"/>
    </linearGradient>

    <linearGradient id="glassWide" x1="235" y1="700" x2="765" y2="700">
      <stop offset="0" stop-color="#04030c"/>
      <stop offset="0.06" stop-color="#17113a"/>
      <stop offset="0.18" stop-color="#4b3bce"/>
      <stop offset="0.33" stop-color="#1b1462"/>
      <stop offset="0.5" stop-color="#080719"/>
      <stop offset="0.68" stop-color="#1b1462"/>
      <stop offset="0.84" stop-color="#4d3fd1"/>
      <stop offset="0.95" stop-color="#151035"/>
      <stop offset="1" stop-color="#010105"/>
    </linearGradient>

    <linearGradient id="glassTall" x1="500" y1="250" x2="500" y2="1260">
      <stop offset="0" stop-color="#d7d9ff" stop-opacity="0.52"/>
      <stop offset="0.12" stop-color="#706cff" stop-opacity="0.72"/>
      <stop offset="0.34" stop-color="#251a83" stop-opacity="0.9"/>
      <stop offset="0.6" stop-color="#080617" stop-opacity="0.98"/>
      <stop offset="0.8" stop-color="#2d24a0" stop-opacity="0.84"/>
      <stop offset="1" stop-color="#05030d"/>
    </linearGradient>

    <linearGradient id="rimLight" x1="260" y1="700" x2="740" y2="700">
      <stop offset="0" stop-color="#ffffff" stop-opacity="0"/>
      <stop offset="0.12" stop-color="#ffffff" stop-opacity="0.5"/>
      <stop offset="0.22" stop-color="#8f86ff" stop-opacity="0.1"/>
      <stop offset="0.52" stop-color="#ffffff" stop-opacity="0.04"/>
      <stop offset="0.78" stop-color="#a9a4ff" stop-opacity="0.16"/>
      <stop offset="0.9" stop-color="#ffffff" stop-opacity="0.55"/>
      <stop offset="1" stop-color="#ffffff" stop-opacity="0"/>
    </linearGradient>

    <linearGradient id="paperLabel" x1="335" y1="666" x2="665" y2="895">
      <stop offset="0" stop-color="#fff1d0"/>
      <stop offset="0.44" stop-color="#e9d5a7"/>
      <stop offset="1" stop-color="#b88a42"/>
    </linearGradient>

    <linearGradient id="labelBorder" x1="310" y1="640" x2="690" y2="920">
      <stop offset="0" stop-color="#ffd98a"/>
      <stop offset="0.4" stop-color="#8d5a1f"/>
      <stop offset="0.62" stop-color="#fff0b7"/>
      <stop offset="1" stop-color="#5a3211"/>
    </linearGradient>

    <filter id="softDrop" x="-35%" y="-35%" width="170%" height="170%">
      <feDropShadow dx="0" dy="42" stdDeviation="34" flood-color="#000000" flood-opacity="0.72"/>
    </filter>

    <filter id="violetGlow" x="-45%" y="-45%" width="190%" height="190%">
      <feGaussianBlur stdDeviation="8" result="blur"/>
      <feColorMatrix in="blur" type="matrix" values="0 0 0 0 0.33 0 0 0 0 0.39 0 0 0 0 0.95 0 0 0 0.62 0" result="glow"/>
      <feMerge>
        <feMergeNode in="glow"/>
        <feMergeNode in="SourceGraphic"/>
      </feMerge>
    </filter>

    <filter id="goldGlow" x="-30%" y="-30%" width="160%" height="160%">
      <feDropShadow dx="0" dy="0" stdDeviation="4" flood-color="#ffd166" flood-opacity="0.38"/>
    </filter>

    <clipPath id="bodyClip">
      <path d="M424 272h152c8 68 28 108 83 172 72 84 102 174 102 306v304c0 124-83 206-207 206H446c-124 0-207-82-207-206V750c0-132 30-222 102-306 55-64 75-104 83-172Z"/>
    </clipPath>
  </defs>

  <ellipse cx="500" cy="1242" rx="310" ry="82" fill="url(#floorGlow)" opacity="0.92"/>
  <ellipse cx="500" cy="1274" rx="282" ry="48" fill="#000" opacity="0.48"/>

  <g filter="url(#softDrop)">
    <g filter="url(#goldGlow)">
      <path d="M370 128h260c38 0 65 22 65 54v54c0 34-27 58-65 58H370c-38 0-65-24-65-58v-54c0-32 27-54 65-54Z" fill="url(#goldCap)"/>
      <path d="M318 206c36 26 328 26 364 0v38c-32 32-332 32-364 0v-38Z" fill="url(#capShadow)" opacity="0.72"/>
      <path d="M355 144h286" stroke="#fff3ba" stroke-width="9" stroke-linecap="round" opacity="0.38"/>
      <path d="M333 238h334" stroke="#3a1e08" stroke-width="10" stroke-linecap="round" opacity="0.46"/>
    </g>

    <path d="M406 252h188v198H406V252Z" fill="url(#glassTall)"/>
    <path d="M410 286c40 28 141 28 180 0" fill="none" stroke="#bdb9ff" stroke-width="10" opacity="0.25"/>
    <path d="M410 390c36 23 145 23 180 0" fill="none" stroke="#ffffff" stroke-width="8" opacity="0.18"/>

    <path d="M424 272h152c8 68 28 108 83 172 72 84 102 174 102 306v304c0 124-83 206-207 206H446c-124 0-207-82-207-206V750c0-132 30-222 102-306 55-64 75-104 83-172Z" fill="url(#glassWide)"/>
    <path d="M424 272h152c8 68 28 108 83 172 72 84 102 174 102 306v304c0 124-83 206-207 206H446c-124 0-207-82-207-206V750c0-132 30-222 102-306 55-64 75-104 83-172Z" fill="url(#glassTall)" opacity="0.66"/>
    <path d="M424 272h152c8 68 28 108 83 172 72 84 102 174 102 306v304c0 124-83 206-207 206H446c-124 0-207-82-207-206V750c0-132 30-222 102-306 55-64 75-104 83-172Z" fill="none" stroke="url(#rimLight)" stroke-width="14" opacity="0.78"/>

    <g clip-path="url(#bodyClip)">
      <rect x="239" y="782" width="522" height="370" fill="#08071b" opacity="0.58"/>
      <ellipse cx="500" cy="790" rx="232" ry="58" fill="#6b66ff" opacity="0.2"/>
      <ellipse cx="500" cy="1130" rx="246" ry="68" fill="#483fff" opacity="0.24"/>
      <path d="M304 532v574c0 67 24 111 66 136-82-22-131-88-131-188V750c0-92 15-162 65-218Z" fill="#ffffff" opacity="0.1"/>
      <path d="M696 532v574c0 67-24 111-66 136 82-22 131-88 131-188V750c0-92-15-162-65-218Z" fill="#000000" opacity="0.3"/>

      <g opacity="0.7" stroke="#c7c4ff" stroke-linecap="round">
        <path d="M278 584l98 124 92-124 92 124 98-124" fill="none" stroke-width="6" opacity="0.42"/>
        <path d="M278 584l190 244 190-244" fill="none" stroke-width="4" opacity="0.28"/>
        <path d="M312 1002l130-150 58 230 58-230 130 150" fill="none" stroke-width="5" opacity="0.35"/>
        <path d="M304 1140l196-220 196 220" fill="none" stroke-width="5" opacity="0.3"/>
      </g>

      <g opacity="0.76">
        <path d="M500 546l36 92h97l-78 57 30 92-85-57-85 57 30-92-78-57h97Z" fill="none" stroke="#918cff" stroke-width="4" opacity="0.38"/>
        <path d="M500 1005l42 106h112l-91 66 35 106-98-66-98 66 35-106-91-66h112Z" fill="none" stroke="#9d95ff" stroke-width="5" opacity="0.42"/>
      </g>
    </g>

    <g filter="url(#violetGlow)">
      <path d="M340 642h320l36 36v204l-36 36H340l-36-36V678Z" fill="url(#labelBorder)"/>
      <path d="M361 664h278l31 31v170l-31 31H361l-31-31V695Z" fill="url(#paperLabel)"/>
      <path d="M378 684h244l25 25v142l-25 25H378l-25-25V709Z" fill="none" stroke="#6b4319" stroke-width="6" opacity="0.5"/>
      <path d="M370 672h114c-32 32-56 88-56 160 0 28 4 48 11 64h-78l-31-31V695Z" fill="#ffffff" opacity="0.22"/>
      <path d="M592 664h47l31 31v170l-31 31h-54c24-45 30-153 7-232Z" fill="#000" opacity="0.12"/>

      <g transform="translate(0 2)">
        <path d="M417 742c40-31 126-31 166 0 18 43 22 92 14 139-35 23-66 35-97 35s-62-12-97-35c-8-47-4-96 14-139Z" fill="#5865f2"/>
        <path d="M418 741c-22-29-45-45-69-50" fill="none" stroke="#5865f2" stroke-width="24" stroke-linecap="round"/>
        <path d="M582 741c22-29 45-45 69-50" fill="none" stroke="#5865f2" stroke-width="24" stroke-linecap="round"/>
        <circle cx="458" cy="802" r="20" fill="#f3dfb8"/>
        <circle cx="542" cy="802" r="20" fill="#f3dfb8"/>
        <path d="M450 852c33 22 67 22 100 0" fill="none" stroke="#f3dfb8" stroke-width="13" stroke-linecap="round"/>
      </g>
    </g>

    <path d="M284 613c24-56 59-104 101-146" stroke="#ffffff" stroke-width="16" stroke-linecap="round" opacity="0.13"/>
    <path d="M327 675v350" stroke="#ffffff" stroke-width="18" stroke-linecap="round" opacity="0.13"/>
    <path d="M360 690v210" stroke="#ffffff" stroke-width="8" stroke-linecap="round" opacity="0.16"/>
    <path d="M612 318c16 64 42 101 86 158" stroke="#ffffff" stroke-width="7" stroke-linecap="round" opacity="0.12"/>
    <path d="M310 1208c84 32 296 46 380 0" fill="none" stroke="#908bff" stroke-width="10" opacity="0.2"/>
  </g>
</svg>
